<svg xmlns="http://www.w3.org/2000/svg" xmlns:xlink="http://www.w3.org/1999/xlink"><symbol viewBox="0 0 1200 1200" id="i-fb"><path d="M553.8 893.52c-8.16-102.84-10.44-205.92-18.72-308.76-.317-13.784-11.416-24.883-25.2-25.2l-108.6-1.32 25.2 25.2L432 468l-25.2 25.2c33.48 0 100.92 14.04 126.84-14.04s16.08-100.8 25.2-135.72c19.32-73.44 76.68-96.72 147.48-100.56 16.92-.96 55.92-7.8 66.48 9.84 8.4 13.92-9.84 82.32-12 99.36l31.92-24c-94.08-27.24-183 41.16-171.36 140.64.436 13.733 11.467 24.764 25.2 25.2 25.68 1.8 77.64-3.24 99 10.44 16.32 10.44 13.44 12 12.96 33.36a483.825 483.825 0 0 1-5.76 62.76l24-18.48c-44.8-.96-89.52-2.72-134.16-5.28-18.24-1.08-26.4 16.92-24 31.92C626.88 669.6 632.88 730.8 636 792c2.76 51.12 15.96 124.08 0 173.4l17.52-17.4a693.96 693.96 0 0 1-121.44 9.24c-32.4 0-32.52 50.16 0 50.4A763.092 763.092 0 0 0 666.84 996 25.2 25.2 0 0 0 684 978.96c18-54.6 5.16-129.96 2.16-186.72-3.48-65.88-10.44-132-19.32-196.8l-24 31.92c44.72 2.64 89.44 4.4 134.16 5.28a25.32 25.32 0 0 0 24-18.48c5.88-38.76 24-109.44-4.32-143.04s-112.08-24-150.48-27.24l25.2 25.2c-7.44-64.32 41.16-111.36 108-92.04 13.671 3.519 27.606-4.711 31.124-18.382.473-1.837.74-3.722.796-5.618 4.92-41.28 33.84-121.56-10.44-150-37.44-24-111.72-12-152.64-2.88-51 10.92-96 37.68-120.96 84-29.4 54.84-15 118.32-37.68 173.4l17.64-17.64c-30.96 7.44-68.64 2.88-100.32 3.24-13.721.185-24.872 11.125-25.32 24.84l-5.52 114.96c.194 13.837 11.363 25.006 25.2 25.2l108.6 1.32-25.2-25.2c8.16 102.84 10.44 205.92 18.72 308.76 2.52 32.16 53.04 32.4 50.4 0v.48z"/></symbol><symbol viewBox="0 0 1200 1200" id="i-ig"><path d="M843.48 306c-23.83-6.818-48.676 6.973-55.494 30.804a44.866 44.866 0 0 0-1.626 9.276c-.532 29.222 22.726 53.342 51.948 53.875l.372.005c28.2 1.32 58.44-17.76 54-48.96s-36-41.88-63.96-41.88c-32.4 0-32.52 50.28 0 50.4a69.294 69.294 0 0 1 12 0c9 1.56 1.68 1.32 2.88 0s.84-13.08 3.72-11.16c2.88 1.92-3.6 1.08-4.8 1.08a11.998 11.998 0 0 1-5.64-1.08c.478.149.813.58.84 1.08-1.68-2.64-2-3.24-.96-1.8-.6 1.2 0 3.12-.96 4.56-.96 1.44-12 0-5.28 2.28 13.81 1.73 26.407-8.063 28.137-21.872a25.2 25.2 0 0 0-14.697-26.128l-.48-.48zm-161.64 95.28c-125.4-56.04-279.36 25.32-300 163.44-20.76 133.2 117 242.16 242.16 237.96s230.76-125.52 199.8-251.4c-27.24-111-199.32-238.56-308.64-156-25.56 19.32 0 63.12 25.44 43.56 79.68-60 208.92 39.96 231.96 117.24 28.56 96-51.72 193.08-149.16 196.32-87.72 2.88-197.16-67.32-194.04-163.92 3.48-108 128.28-187.68 226.92-144 29.4 13.08 55.08-30.24 25.44-43.56l.12.36z"/><path d="M1010.519 671.306c-1.275-57.884-6.063-115.685-4.376-173.595 1.673-57.426 6.706-115.144.808-172.495-2.722-26.471-7.375-51.671-19.221-75.929-8.166-16.721-20.886-32.178-36.191-43.647-33.388-25.018-74.307-33.907-116.12-36.899-39.664-2.838-79.531.14-119.168 1.943-44.801 2.038-89.526.403-134.325-.942-105.629-3.168-218.147-5.71-315.962 37.64a262.463 262.463 0 0 0-34.195 18.315c-5.37 3.406-9.339 8.193-11.332 13.535-14.952 13.819-21.926 35.386-25.487 54.535-6.43 34.575-6.656 69.968-5.611 104.952.996 33.369 3.608 66.667 6.253 99.949.921 11.588 1.899 23.181 2.467 34.791 1.087 22.209-1.112 44.722-1.921 66.927-3.306 90.746-6.073 181.529-6.092 272.335-.003 13.248 11.752 24.303 25.83 24.303 14.083 0 25.828-11.055 25.83-24.303.014-63.013 1.365-126.018 3.277-189.003.958-31.549 2.068-63.094 3.229-94.637.722-19.609 2.43-39.334 1.332-58.948-3.551-63.428-11.536-126.642-8.188-190.27.273-5.195.65-10.386 1.12-15.568.226-2.485.488-4.968.769-7.449.137-1.21.288-2.421.44-3.629.025-.198.052-.396.078-.593 1.302-8.446 3.071-16.847 5.683-25.022a100.318 100.318 0 0 1 1.885-5.33c.116-.302.244-.6.365-.9a53.965 53.965 0 0 1 3.919-6.608c.343-.352.702-.691 1.066-1.024 7.851-2.478 13.844-8.166 16.529-15.087a280.526 280.526 0 0 1 16.188-8.105 290.078 290.078 0 0 1 7.968-3.508c1.081-.46 2.17-.904 3.259-1.349l.042-.016c5.944-2.297 11.981-4.375 18.061-6.329 24.042-7.727 48.999-12.769 74.099-16.288 1.303-.182 2.608-.354 3.913-.527l.046-.006c3.111-.378 6.227-.721 9.344-1.054 6.794-.724 13.603-1.321 20.418-1.849 13.22-1.024 26.472-1.671 39.728-2.1 26.551-.86 53.131-.667 79.688-.117 47.97.994 96.024 3.941 144.016 2.837 39.484-.908 78.867-4.397 118.391-3.953 9.798.11 19.592.499 29.361 1.227 4.36.326 8.711.753 13.054 1.246.534.074 1.069.145 1.602.221a265.8 265.8 0 0 1 7.701 1.228c8.889 1.535 17.67 3.613 26.254 6.277 2.005.622 3.99 1.298 5.967 1.993.726.255 1.446.526 2.167.795a140.496 140.496 0 0 1 10.462 4.94c3.578 1.869 7.029 3.943 10.384 6.146.452.296.893.607 1.338.912 1.568 1.208 3.1 2.458 4.599 3.741 3.079 2.634 5.951 5.475 8.685 8.425.47.507 1.282 1.462 1.994 2.31 1.02 1.34 2.016 2.698 2.978 4.075 2.472 3.543 4.663 7.252 6.691 11.033.459.856.896 1.723 1.327 2.593.248.658 2.072 4.794 2.582 6.138 4.028 10.622 6.362 21.639 8.164 32.763.075.46.208 1.345.323 2.109.116.878.238 1.755.351 2.633.417 3.247.771 6.501 1.105 9.755.738 7.173 1.248 14.365 1.649 21.56.793 14.226.963 28.478.872 42.72-.188 29.177-1.714 58.329-2.838 87.481-1.089 28.234-1.796 56.498-.433 84.735 1.417 29.349 2.739 58.703 3.628 88.071 1.8 59.489 1.96 119.209-3.71 178.53-.495 5.178-1.021 10.352-1.636 15.518-.167 1.399-.358 2.797-.541 4.194-.222 1.503-.705 4.846-.898 6.023-1.448 8.817-3.328 17.577-5.841 26.182a144.189 144.189 0 0 1-3.73 11.026c-.223.584-.46 1.162-.695 1.741-.536 1.153-1.478 3.195-1.966 4.136-1.613 3.111-3.434 6.123-5.394 9.052a84.728 84.728 0 0 1-2.763 3.849c-.215.243-.422.494-.638.736-2.312 2.582-4.832 4.993-7.459 7.29a82.165 82.165 0 0 1-3.367 2.76c-.498.336-.989.682-1.491 1.012-3.184 2.098-6.524 3.979-9.927 5.742a127.633 127.633 0 0 1-5.436 2.627c-1.013.466-3.463 1.471-4.816 2.032-8.166 2.991-16.6 5.329-25.089 7.347-5.276 1.253-10.6 2.328-15.937 3.323a419.852 419.852 0 0 1-8.94 1.551c-2.452.257-4.906.494-7.361.724-64.361 6.059-129.155 2.992-193.66 6.292-64.849 3.317-129.419 3.353-194.238-.825-32.357-2.085-64.645-5.085-96.841-8.752a2199.61 2199.61 0 0 1-24.4-2.932 2380.71 2380.71 0 0 1-19.421-2.58 2504.96 2504.96 0 0 1-48.068-7.071c-13.877-2.17-27.754 3.222-31.774 16.974-3.437 11.756 4.135 27.72 18.041 29.896 66.417 10.389 133.303 18.463 200.476 22.94 66.089 4.405 131.938 4.243 198.06.861 64.561-3.303 129.345-.317 193.77-6.38 42.708-4.02 90.741-15.024 121.428-45.329 28.795-28.437 36.259-68.134 40.727-105.688 6.815-57.307 6.984-115.33 5.716-172.911z"/></symbol><symbol viewBox="0 0 1200 1200" id="i-tw"><path d="M458.16 765.36c-68.002-10.643-126.373-54.153-156-116.28l-15.12 36.96a294.464 294.464 0 0 1 64.68-5.28c20.28 0 35.4-29.04 17.76-42.96-50.4-40.32-103.8-97.8-96.96-166.44l-42.96 17.76a154.566 154.566 0 0 0 69.36 33.72c13.743 2.921 27.252-5.853 30.173-19.596a25.439 25.439 0 0 0-6.173-22.524c-48.75-56.947-57.43-138.023-21.84-204h-42.84a489.002 489.002 0 0 0 328.68 200.52c13.384 3.401 27.062-4.392 30.96-17.64 9.84-49.56 19.44-106.8 58.2-143.28 33.48-31.44 102.84-43.32 146.28-26.64C849.72 300 858.96 331.56 888 336c31.56 4.92 78.96-20.88 108.84-29.88l-28.44-36.96L926.28 336c-6.95 12.134-2.748 27.605 9.387 34.556a25.328 25.328 0 0 0 5.733 2.404l58.68 8.76-6-45.72c-28.68 15.48-58.08 33-72 63.84-17.4 37.68-6.84 81.12-10.8 121.08C900 628.2 835.68 716.16 749.76 776.88c-130.2 92.28-437.04 244.8-534.72 36.72-13.8-29.28-57.24-3.84-43.56 25.44 96 204 357.12 114.96 508.08 38.16C764.76 833.88 846 777.12 900 697.2a374.755 374.755 0 0 0 58.2-150 435.062 435.062 0 0 0 4.68-65.16c0-46.68 14.76-79.8 56.64-102.36 17.64-9.6 15.96-42.84-6-46.08l-58.68-8.76 15.12 36.96 42.12-67.32c6.725-12.336 2.176-27.788-10.16-34.513A25.44 25.44 0 0 0 984 257.52c-14.16 4.32-72 32.4-85.44 29.04-9.24-2.4-25.44-27.48-36-33.72-34.8-20.52-77.76-22.2-116.76-17.28-116.16 14.4-155.28 106.68-176.04 210.6L600 428.64a441.118 441.118 0 0 1-298.44-177.6c-10.44-14.28-33.96-18.24-43.56 0-46.258 85.929-34.3 191.549 30 264.96l24-42.12a85.68 85.68 0 0 1-47.16-20.76c-10.331-9.619-26.505-9.042-36.124 1.289a25.565 25.565 0 0 0-6.836 16.471c-8.16 82.08 51 153.72 111.72 202.08L351.36 630a370.809 370.809 0 0 0-78 7.08c-13.503 3.883-21.301 17.977-17.418 31.48a25.458 25.458 0 0 0 2.298 5.48c35.977 74.019 105.465 126.125 186.6 139.92 31.68 5.76 45.36-42.84 13.44-48l-.12-.6z"/></symbol><symbol viewBox="0 0 1200 1200" id="i-vk"><path d="M492 435.6a634.89 634.89 0 0 1-1.92 91.32c-6.64 41.84-7.84 51.32-3.6 28.44A390.197 390.197 0 0 1 454.56 516c-31.2-44.04-41.76-93.12-65.4-139.8-12-24-25.68-29.4-51-33.36-56.64-8.76-117.84-5.64-174.96-4.2-12 0-27 11.4-25.2 25.2 10.44 78 50.4 156.96 84.84 227.04 37.92 77.04 108 132 175.8 181.56C472.08 826.8 543.72 862.08 636 864c22.2 0 56.28 6.36 72-14.52 17.88-24-13.08-72 3.72-89.28 18.6-19.68 27.48 9.72 39.84 24s26.04 37.2 43.32 49.08c27.84 19.2 58.08 13.32 90.84 12 43.92-1.56 97.08 5.16 139.2-6.12 18.36-4.92 29.88-12 34.56-31.08 15.12-62.64-102.12-127.8-136.68-163.68l-13.32-13.8c-20-13.52-21.12-26.56-3.36-39.12 7.56-19.68 31.08-40.68 44.04-57.6 34.68-45.48 69.12-91.2 102.24-137.76 6.869-12.017 2.87-27.32-9-34.44-60-33.6-162.48-39.48-222.96-5.28-78.48 45-63.24 161.88-142.44 197.76L715.92 576c-5.52-61.56 30.84-175.08-36-215.28-52.08-31.44-149.04-23.4-205.56-13.32-31.92 5.64-18.36 54.24 13.44 48 40.44-7.2 114.48-13.68 152.4 4.44 51 24 20.76 128.4 24.96 175.44.358 14.112 12.088 25.262 26.2 24.904a25.56 25.56 0 0 0 11.72-3.183c45.72-20.76 66.6-61.68 84-106.8 19.08-49.68 34.56-88.92 92.64-101.4 40.08-8.64 101.88-3.72 137.76 16.44l-8.64-33.24c-35.4 49.8-72 98.4-109.2 146.88-19.2 24.48-59.64 58.8-58.32 93.12.72 31.2 39.6 63.96 60 82.44 24.72 22.44 111.48 75.6 108 114.96l12-21.72c-17.52 11.04-51.84 5.4-72 6.12-27.96.96-57.12 4.56-84.96 3.12-64.68-3.48-73.68-62.04-120.84-96-19.44-13.92-45-20.88-64.8-3.12-33.6 30.12-2.4 82.08-15.72 115.8-6.36 16.08 5.4.6-16.2 0a479.947 479.947 0 0 1-49.44-2.52 258.844 258.844 0 0 1-96.96-31.08 811.724 811.724 0 0 1-143.04-103.68 374.394 374.394 0 0 1-101.88-134.28c-24.96-56.04-58.8-116.28-66.96-177.36l-25.2 25.2c36-.84 72.96-.96 109.44 0 16.2.6 58.92-1.8 71.28 10.32 5.88 5.88 8.76 27.6 12 36A477.967 477.967 0 0 0 444 584.041c96 109.32 100.08-90.24 97.8-148.44-1.2-32.28-51.6-32.52-50.4 0h.6z"/></symbol></svg>