<?xml version="1.0" encoding="utf-8"?>
<!-- Generator: Adobe Illustrator 17.0.0, SVG Export Plug-In . SVG Version: 6.00 Build 0)  -->
<!DOCTYPE svg PUBLIC "-//W3C//DTD SVG 1.1//EN" "http://www.w3.org/Graphics/SVG/1.1/DTD/svg11.dtd">
<svg version="1.1" id="Слой_1" xmlns="http://www.w3.org/2000/svg" xmlns:xlink="http://www.w3.org/1999/xlink" x="0px" y="0px"
	 width="1200px" height="1200px" viewBox="0 0 1200 1200" enable-background="new 0 0 1200 1200" xml:space="preserve">
<g id="_Группа__25_">
	<path fill="#010202" d="M553.8,893.52c-8.16-102.84-10.44-205.92-18.72-308.76c-0.317-13.784-11.416-24.883-25.2-25.2l-108.6-1.32
		l25.2,25.2L432,468l-25.2,25.2c33.48,0,100.92,14.04,126.84-14.04s16.08-100.8,25.2-135.72c19.32-73.44,76.68-96.72,147.48-100.56
		c16.92-0.96,55.92-7.8,66.48,9.84c8.4,13.92-9.84,82.32-12,99.36l31.92-24c-94.08-27.24-183,41.16-171.36,140.64
		c0.436,13.733,11.467,24.764,25.2,25.2c25.68,1.8,77.64-3.24,99,10.44c16.32,10.44,13.44,12,12.96,33.36
		c-0.554,21.023-2.478,41.987-5.76,62.76l24-18.48c-44.8-0.96-89.52-2.72-134.16-5.28c-18.24-1.08-26.4,16.92-24,31.92
		C626.88,669.6,632.88,730.8,636,792c2.76,51.12,15.96,124.08,0,173.4l17.52-17.4c-40.131,6.633-80.767,9.725-121.44,9.24
		c-32.4,0-32.52,50.16,0,50.4c45.176,0.117,90.273-3.779,134.76-11.64c8.25-2.385,14.717-8.807,17.16-17.04
		c18-54.6,5.16-129.96,2.16-186.72c-3.48-65.88-10.44-132-19.32-196.8l-24,31.92c44.72,2.64,89.44,4.4,134.16,5.28
		c11.209-0.168,20.973-7.686,24-18.48c5.88-38.76,24-109.44-4.32-143.04s-112.08-24-150.48-27.24l25.2,25.2
		c-7.44-64.32,41.16-111.36,108-92.04c13.671,3.519,27.606-4.711,31.124-18.382c0.473-1.837,0.74-3.722,0.796-5.618
		c4.92-41.28,33.84-121.56-10.44-150c-37.44-24-111.72-12-152.64-2.88c-51,10.92-96,37.68-120.96,84
		c-29.4,54.84-15,118.32-37.68,173.4l17.64-17.64c-30.96,7.44-68.64,2.88-100.32,3.24c-13.721,0.185-24.872,11.125-25.32,24.84
		l-5.52,114.96c0.194,13.837,11.363,25.006,25.2,25.2l108.6,1.32l-25.2-25.2c8.16,102.84,10.44,205.92,18.72,308.76
		c2.52,32.16,53.04,32.4,50.4,0V893.52z"/>
</g>
</svg>
