<?xml version="1.0" encoding="utf-8"?>
<!-- Generator: Adobe Illustrator 17.0.0, SVG Export Plug-In . SVG Version: 6.00 Build 0)  -->
<!DOCTYPE svg PUBLIC "-//W3C//DTD SVG 1.1//EN" "http://www.w3.org/Graphics/SVG/1.1/DTD/svg11.dtd">
<svg version="1.1" id="Слой_1" xmlns="http://www.w3.org/2000/svg" xmlns:xlink="http://www.w3.org/1999/xlink" x="0px" y="0px"
	 width="1200px" height="1200px" viewBox="0 0 1200 1200" enable-background="new 0 0 1200 1200" xml:space="preserve">
<path fill="#010202" d="M843.48,306c-23.83-6.818-48.676,6.973-55.494,30.804c-0.866,3.027-1.411,6.136-1.626,9.276
	c-0.532,29.222,22.726,53.342,51.948,53.875c0.124,0.002,0.248,0.004,0.372,0.005c28.2,1.32,58.44-17.76,54-48.96
	s-36-41.88-63.96-41.88c-32.4,0-32.52,50.28,0,50.4c3.992-0.347,8.008-0.347,12,0c9,1.56,1.68,1.32,2.88,0
	c1.2-1.32,0.84-13.08,3.72-11.16c2.88,1.92-3.6,1.08-4.8,1.08c-1.94,0.102-3.875-0.269-5.64-1.08c0.478,0.149,0.813,0.58,0.84,1.08
	c-1.68-2.64-2-3.24-0.96-1.8c-0.6,1.2,0,3.12-0.96,4.56c-0.96,1.44-12,0-5.28,2.28c13.81,1.73,26.407-8.063,28.137-21.872
	c1.377-10.993-4.587-21.596-14.697-26.128L843.48,306z"/>
<path fill="#010202" d="M681.84,401.28c-125.4-56.04-279.36,25.32-300,163.44c-20.76,133.2,117,242.16,242.16,237.96
	s230.76-125.52,199.8-251.4c-27.24-111-199.32-238.56-308.64-156c-25.56,19.32,0,63.12,25.44,43.56
	c79.68-60,208.92,39.96,231.96,117.24c28.56,96-51.72,193.08-149.16,196.32c-87.72,2.88-197.16-67.32-194.04-163.92
	c3.48-108,128.28-187.68,226.92-144c29.4,13.08,55.08-30.24,25.44-43.56L681.84,401.28z"/>
<path fill="#010202" d="M1010.519,671.306c-1.275-57.884-6.063-115.685-4.376-173.595c1.673-57.426,6.706-115.144,0.808-172.495
	c-2.722-26.471-7.375-51.671-19.221-75.929c-8.166-16.721-20.886-32.178-36.191-43.647c-33.388-25.018-74.307-33.907-116.12-36.899
	c-39.664-2.838-79.531,0.14-119.168,1.943c-44.801,2.038-89.526,0.403-134.325-0.942c-105.629-3.168-218.147-5.71-315.962,37.64
	c-11.88,5.265-23.308,11.411-34.195,18.315c-5.37,3.406-9.339,8.193-11.332,13.535c-14.952,13.819-21.926,35.386-25.487,54.535
	c-6.43,34.575-6.656,69.968-5.611,104.952c0.996,33.369,3.608,66.667,6.253,99.949c0.921,11.588,1.899,23.181,2.467,34.791
	c1.087,22.209-1.112,44.722-1.921,66.927c-3.306,90.746-6.073,181.529-6.092,272.335c-0.003,13.248,11.752,24.303,25.83,24.303
	c14.083,0,25.828-11.055,25.83-24.303c0.014-63.013,1.365-126.018,3.277-189.003c0.958-31.549,2.068-63.094,3.229-94.637
	c0.722-19.609,2.43-39.334,1.332-58.948c-3.551-63.428-11.536-126.642-8.188-190.27c0.273-5.195,0.65-10.386,1.12-15.568
	c0.226-2.485,0.488-4.968,0.769-7.449c0.137-1.21,0.288-2.421,0.44-3.629c0.025-0.198,0.052-0.396,0.078-0.593
	c1.302-8.446,3.071-16.847,5.683-25.022c0.573-1.794,1.211-3.569,1.885-5.33c0.116-0.302,0.244-0.6,0.365-0.9
	c1.146-2.284,2.45-4.495,3.919-6.608c0.343-0.352,0.702-0.691,1.066-1.024c7.851-2.478,13.844-8.166,16.529-15.087
	c5.294-2.871,10.693-5.569,16.188-8.105c2.633-1.215,5.296-2.371,7.968-3.508c1.081-0.46,2.17-0.904,3.259-1.349
	c0.015-0.006,0.027-0.01,0.042-0.016c5.944-2.297,11.981-4.375,18.061-6.329c24.042-7.727,48.999-12.769,74.099-16.288
	c1.303-0.182,2.608-0.354,3.913-0.527c0.016-0.002,0.029-0.004,0.046-0.006c3.111-0.378,6.227-0.721,9.344-1.054
	c6.794-0.724,13.603-1.321,20.418-1.849c13.22-1.024,26.472-1.671,39.728-2.1c26.551-0.86,53.131-0.667,79.688-0.117
	c47.97,0.994,96.024,3.941,144.016,2.837c39.484-0.908,78.867-4.397,118.391-3.953c9.798,0.11,19.592,0.499,29.361,1.227
	c4.36,0.326,8.711,0.753,13.054,1.246c0.534,0.074,1.069,0.145,1.602,0.221c2.575,0.367,5.14,0.786,7.701,1.228
	c8.889,1.535,17.67,3.613,26.254,6.277c2.005,0.622,3.99,1.298,5.967,1.993c0.726,0.255,1.446,0.526,2.167,0.795
	c3.562,1.502,7.049,3.157,10.462,4.94c3.578,1.869,7.029,3.943,10.384,6.146c0.452,0.296,0.893,0.607,1.338,0.912
	c1.568,1.208,3.1,2.458,4.599,3.741c3.079,2.634,5.951,5.475,8.685,8.425c0.47,0.507,1.282,1.462,1.994,2.31
	c1.02,1.34,2.016,2.698,2.978,4.075c2.472,3.543,4.663,7.252,6.691,11.033c0.459,0.856,0.896,1.723,1.327,2.593
	c0.248,0.658,2.072,4.794,2.582,6.138c4.028,10.622,6.362,21.639,8.164,32.763c0.075,0.46,0.208,1.345,0.323,2.109
	c0.116,0.878,0.238,1.755,0.351,2.633c0.417,3.247,0.771,6.501,1.105,9.755c0.738,7.173,1.248,14.365,1.649,21.56
	c0.793,14.226,0.963,28.478,0.872,42.72c-0.188,29.177-1.714,58.329-2.838,87.481c-1.089,28.234-1.796,56.498-0.433,84.735
	c1.417,29.349,2.739,58.703,3.628,88.071c1.8,59.489,1.96,119.209-3.71,178.53c-0.495,5.178-1.021,10.352-1.636,15.518
	c-0.167,1.399-0.358,2.797-0.541,4.194c-0.222,1.503-0.705,4.846-0.898,6.023c-1.448,8.817-3.328,17.577-5.841,26.182
	c-1.087,3.721-2.343,7.396-3.73,11.026c-0.223,0.584-0.46,1.162-0.695,1.741c-0.536,1.153-1.478,3.195-1.966,4.136
	c-1.613,3.111-3.434,6.123-5.394,9.052c-0.877,1.31-1.811,2.586-2.763,3.849c-0.215,0.243-0.422,0.494-0.638,0.736
	c-2.312,2.582-4.832,4.993-7.459,7.29c-1.091,0.953-2.223,1.863-3.367,2.76c-0.498,0.336-0.989,0.682-1.491,1.012
	c-3.184,2.098-6.524,3.979-9.927,5.742c-1.785,0.925-3.606,1.786-5.436,2.627c-1.013,0.466-3.463,1.471-4.816,2.032
	c-8.166,2.991-16.6,5.329-25.089,7.347c-5.276,1.253-10.6,2.328-15.937,3.323c-2.852,0.532-5.714,1.017-8.578,1.49
	c-0.134,0.022-0.249,0.041-0.362,0.061c-2.452,0.257-4.906,0.494-7.361,0.724c-64.361,6.059-129.155,2.992-193.66,6.292
	c-64.849,3.317-129.419,3.353-194.238-0.825c-32.357-2.085-64.645-5.085-96.841-8.752c-7.503-0.854-15-1.76-22.492-2.691
	c-0.782-0.098-1.557-0.196-1.908-0.241c-1.946-0.249-3.891-0.503-5.837-0.758c-4.53-0.592-9.058-1.204-13.584-1.822
	c-16.049-2.194-32.07-4.567-48.068-7.071c-13.877-2.17-27.754,3.222-31.774,16.974c-3.437,11.756,4.135,27.72,18.041,29.896
	c66.417,10.389,133.303,18.463,200.476,22.94c66.089,4.405,131.938,4.243,198.06,0.861c64.561-3.303,129.345-0.317,193.77-6.38
	c42.708-4.02,90.741-15.024,121.428-45.329c28.795-28.437,36.259-68.134,40.727-105.688
	C1011.618,786.91,1011.787,728.887,1010.519,671.306z"/>
</svg>
