<?xml version="1.0" encoding="utf-8"?>
<!-- Generator: Adobe Illustrator 17.0.0, SVG Export Plug-In . SVG Version: 6.00 Build 0)  -->
<!DOCTYPE svg PUBLIC "-//W3C//DTD SVG 1.1//EN" "http://www.w3.org/Graphics/SVG/1.1/DTD/svg11.dtd">
<svg version="1.1" id="Слой_1" xmlns="http://www.w3.org/2000/svg" xmlns:xlink="http://www.w3.org/1999/xlink" x="0px" y="0px"
	 width="1200px" height="1200px" viewBox="0 0 1200 1200" enable-background="new 0 0 1200 1200" xml:space="preserve">
<g id="_Группа__8_">
	<path fill="#010202" d="M458.16,765.36c-68.002-10.643-126.373-54.153-156-116.28l-15.12,36.96c21.3-4.138,42.991-5.908,64.68-5.28
		c20.28,0,35.4-29.04,17.76-42.96c-50.4-40.32-103.8-97.8-96.96-166.44l-42.96,17.76c19.899,16.92,43.762,28.521,69.36,33.72
		c13.743,2.921,27.252-5.853,30.173-19.596c1.714-8.065-0.587-16.46-6.173-22.524c-48.75-56.947-57.43-138.023-21.84-204h-42.84
		c77.53,108.974,196.309,181.438,328.68,200.52c13.384,3.401,27.062-4.392,30.96-17.64c9.84-49.56,19.44-106.8,58.2-143.28
		c33.48-31.44,102.84-43.32,146.28-26.64C849.72,300,858.96,331.56,888,336c31.56,4.92,78.96-20.88,108.84-29.88l-28.44-36.96
		L926.28,336c-6.95,12.134-2.748,27.605,9.387,34.556c1.805,1.034,3.731,1.841,5.733,2.404l58.68,8.76l-6-45.72
		c-28.68,15.48-58.08,33-72,63.84c-17.4,37.68-6.84,81.12-10.8,121.08C900,628.2,835.68,716.16,749.76,776.88
		c-130.2,92.28-437.04,244.8-534.72,36.72c-13.8-29.28-57.24-3.84-43.56,25.44c96,204,357.12,114.96,508.08,38.16
		C764.76,833.88,846,777.12,900,697.2c30.031-45.197,49.889-96.376,58.2-150c3.191-21.572,4.755-43.353,4.68-65.16
		c0-46.68,14.76-79.8,56.64-102.36c17.64-9.6,15.96-42.84-6-46.08l-58.68-8.76l15.12,36.96l42.12-67.32
		c6.725-12.336,2.176-27.788-10.16-34.513c-5.472-2.983-11.849-3.854-17.92-2.447c-14.16,4.32-72,32.4-85.44,29.04
		c-9.24-2.4-25.44-27.48-36-33.72c-34.8-20.52-77.76-22.2-116.76-17.28c-116.16,14.4-155.28,106.68-176.04,210.6L600,428.64
		c-119.579-15.903-227.429-80.083-298.44-177.6c-10.44-14.28-33.96-18.24-43.56,0c-46.258,85.929-34.3,191.549,30,264.96l24-42.12
		c-17.478-1.917-33.942-9.165-47.16-20.76c-10.331-9.619-26.505-9.042-36.124,1.289c-4.182,4.492-6.608,10.338-6.836,16.471
		c-8.16,82.08,51,153.72,111.72,202.08L351.36,630c-26.177-0.4-52.323,1.973-78,7.08c-13.503,3.883-21.301,17.977-17.418,31.48
		c0.549,1.91,1.321,3.749,2.298,5.48c35.977,74.019,105.465,126.125,186.6,139.92c31.68,5.76,45.36-42.84,13.44-48L458.16,765.36z"
		/>
</g>
</svg>
