<?xml version="1.0" encoding="utf-8"?>
<!-- Generator: Adobe Illustrator 17.0.0, SVG Export Plug-In . SVG Version: 6.00 Build 0)  -->
<!DOCTYPE svg PUBLIC "-//W3C//DTD SVG 1.1//EN" "http://www.w3.org/Graphics/SVG/1.1/DTD/svg11.dtd">
<svg version="1.1" id="Слой_1" xmlns="http://www.w3.org/2000/svg" xmlns:xlink="http://www.w3.org/1999/xlink" x="0px" y="0px"
	 width="1200px" height="1200px" viewBox="0 0 1200 1200" enable-background="new 0 0 1200 1200" xml:space="preserve">
<g id="_Группа__12_">
	<path fill="#010202" d="M492,435.6c1.553,30.447,0.912,60.966-1.92,91.32c-6.64,41.84-7.84,51.32-3.6,28.44
		c-11.482-12.415-22.144-25.562-31.92-39.36c-31.2-44.04-41.76-93.12-65.4-139.8c-12-24-25.68-29.4-51-33.36
		c-56.64-8.76-117.84-5.64-174.96-4.2c-12,0-27,11.4-25.2,25.2c10.44,78,50.4,156.96,84.84,227.04c37.92,77.04,108,132,175.8,181.56
		C472.08,826.8,543.72,862.08,636,864c22.2,0,56.28,6.36,72-14.52c17.88-24-13.08-72,3.72-89.28c18.6-19.68,27.48,9.72,39.84,24
		s26.04,37.2,43.32,49.08c27.84,19.2,58.08,13.32,90.84,12c43.92-1.56,97.08,5.16,139.2-6.12c18.36-4.92,29.88-12,34.56-31.08
		c15.12-62.64-102.12-127.8-136.68-163.68l-13.32-13.8c-20-13.52-21.12-26.56-3.36-39.12c7.56-19.68,31.08-40.68,44.04-57.6
		c34.68-45.48,69.12-91.2,102.24-137.76c6.869-12.017,2.87-27.32-9-34.44c-60-33.6-162.48-39.48-222.96-5.28
		c-78.48,45-63.24,161.88-142.44,197.76L715.92,576c-5.52-61.56,30.84-175.08-36-215.28c-52.08-31.44-149.04-23.4-205.56-13.32
		c-31.92,5.64-18.36,54.24,13.44,48c40.44-7.2,114.48-13.68,152.4,4.44c51,24,20.76,128.4,24.96,175.44
		c0.358,14.112,12.088,25.262,26.2,24.904c4.106-0.104,8.126-1.196,11.72-3.183c45.72-20.76,66.6-61.68,84-106.8
		c19.08-49.68,34.56-88.92,92.64-101.4c40.08-8.64,101.88-3.72,137.76,16.44l-8.64-33.24c-35.4,49.8-72,98.4-109.2,146.88
		c-19.2,24.48-59.64,58.8-58.32,93.12c0.72,31.2,39.6,63.96,60,82.44c24.72,22.44,111.48,75.6,108,114.96l12-21.72
		c-17.52,11.04-51.84,5.4-72,6.12c-27.96,0.96-57.12,4.56-84.96,3.12c-64.68-3.48-73.68-62.04-120.84-96
		c-19.44-13.92-45-20.88-64.8-3.12c-33.6,30.12-2.4,82.08-15.72,115.8c-6.36,16.08,5.4,0.6-16.2,0
		c-16.512,0.011-33.014-0.83-49.44-2.52c-34.059-3.838-67.016-14.403-96.96-31.08c-51.31-29.253-99.274-64.019-143.04-103.68
		c-43.725-36.434-78.568-82.358-101.88-134.28c-24.96-56.04-58.8-116.28-66.96-177.36l-25.2,25.2c36-0.84,72.96-0.96,109.44,0
		c16.2,0.6,58.92-1.8,71.28,10.32c5.88,5.88,8.76,27.6,12,36c20.137,54.194,49.94,104.285,87.96,147.84
		c96,109.32,100.08-90.24,97.8-148.44c-1.2-32.28-51.6-32.52-50.4,0H492z"/>
</g>
</svg>
